<svg width="199" height="56" viewBox="0 0 199 56" fill="none" xmlns="http://www.w3.org/2000/svg">
<path d="M55.837 27.0604L50.5364 32.2595C50.5987 32.5101 50.6611 32.7606 50.6611 33.0112C50.6611 34.4519 49.601 35.7047 48.229 35.8926V55.5615C48.229 55.8121 48.0419 56 47.7925 56C47.5431 56 47.356 55.8121 47.356 55.5615V35.9553C45.984 35.7673 44.9239 34.5145 44.9239 33.0738C44.9239 32.8233 44.9863 32.5101 45.0486 32.2595L38.9996 26.1834C38.7502 26.3087 38.4384 26.3714 38.1266 26.3714V55.5615C38.1266 55.8121 37.9395 56 37.6901 56C37.4406 56 37.2535 55.8121 37.2535 55.5615V26.3087C37.1288 26.3087 37.0041 26.2461 36.8794 26.1834L28.0241 35.1409V55.5615C28.0241 55.8121 27.8371 56 27.5876 56C27.3382 56 27.1511 55.8121 27.1511 55.5615V36.0179L20.1667 43.0336C20.2914 43.3468 20.4161 43.7852 20.4161 44.1611C20.4161 45.6018 19.356 46.8546 17.984 47.0425V55.5615C17.984 55.8121 17.797 56 17.5475 56C17.2981 56 17.111 55.8121 17.111 55.5615V47.0425C15.7391 46.8546 14.6789 45.6018 14.6789 44.1611C14.6789 43.8479 14.7413 43.5347 14.8036 43.2841L8.06868 36.519H7.8816V55.5615C7.8816 55.8121 7.69451 56 7.44507 56C7.19563 56 7.00854 55.8121 7.00854 55.5615V36.5817C6.69674 36.519 6.4473 36.4564 6.13549 36.3311L1.64552 40.8412C1.27135 41.217 0.710103 41.217 0.398299 40.8412C0.0241346 40.4653 0.0241346 39.9016 0.398299 39.5884L4.88828 35.0783C4.70119 34.7025 4.57647 34.264 4.57647 33.7629C4.57647 32.3222 5.63661 31.132 7.00854 30.8814V2.44295C6.50966 2.25503 6.19785 1.81656 6.19785 1.2528C6.19785 0.563758 6.7591 0 7.44507 0C8.13104 0 8.69229 0.563758 8.69229 1.2528C8.69229 1.81656 8.31812 2.25503 7.8816 2.44295V30.8188C9.25353 31.0067 10.3137 32.2595 10.3137 33.7002C10.3137 34.3893 10.0642 35.0783 9.6277 35.5794L15.8014 41.8434C16.1756 41.5928 16.6121 41.4049 17.0486 41.3423V2.50559C16.5497 2.31767 16.2379 1.87919 16.2379 1.31544C16.2379 0.626398 16.7992 0.0626398 17.4852 0.0626398C18.1711 0.0626398 18.7324 0.626398 18.7324 1.31544C18.7324 1.87919 18.4206 2.31767 17.9217 2.50559V41.3423C18.2958 41.4049 18.67 41.5302 18.9195 41.7181L27.0887 33.5123V2.44295C26.5898 2.25503 26.278 1.81656 26.278 1.2528C26.278 0.563758 26.8393 0 27.5252 0C28.2112 0 28.7725 0.563758 28.7725 1.2528C28.7725 1.81656 28.4607 2.25503 27.9618 2.44295V32.5101L35.3203 25.0559C35.0085 24.6175 34.8215 24.0537 34.8215 23.4273C34.8215 22.0492 35.8192 20.8591 37.0664 20.6085V2.44295C36.5676 2.25503 36.2558 1.81656 36.2558 1.2528C36.2558 0.563758 36.817 0 37.503 0C38.1889 0 38.7502 0.563758 38.7502 1.2528C38.7502 1.81656 38.4384 2.25503 37.9395 2.44295V20.5459C38.3137 20.5459 38.6255 20.6711 38.9373 20.8591C39.8727 21.3602 40.5587 22.2998 40.5587 23.4899C40.5587 24.0537 40.4339 24.5548 40.1221 24.9933L45.8593 30.7562C46.2335 30.443 46.67 30.255 47.1689 30.1924V2.44295C46.67 2.25503 46.3582 1.81656 46.3582 1.2528C46.3582 0.563758 46.9195 0 47.6054 0C48.2914 0 48.8526 0.563758 48.8526 1.2528C48.8526 1.81656 48.5408 2.25503 48.042 2.44295V30.1924C48.5408 30.255 48.9774 30.443 49.3515 30.7562L54.4027 25.6823C54.7769 25.3065 55.4005 25.3065 55.837 25.6823C56.2112 26.0582 56.2112 26.6846 55.837 27.0604Z" fill="#111111"/>
<path d="M195.619 4.78554L194.572 4.69351C194.106 3.73231 193.519 3.07277 192.811 2.71487C192.113 2.35698 191.462 2.17803 190.859 2.17803C189.802 2.17803 189.04 2.42345 188.575 2.91427C188.109 3.40509 187.877 3.94193 187.877 4.52479C187.877 5.16899 188.12 5.72628 188.606 6.19666C189.093 6.65681 189.717 7.08116 190.479 7.46973C191.251 7.8583 192.065 8.25199 192.922 8.65078C193.779 9.04958 194.588 9.50461 195.349 10.0159C196.121 10.5272 196.751 11.1356 197.237 11.8411C197.724 12.5467 197.967 13.4056 197.967 14.418C197.967 15.1031 197.803 15.8086 197.475 16.5346C197.158 17.2607 196.671 17.9355 196.016 18.5593C195.37 19.1831 194.551 19.6892 193.556 20.0778C192.573 20.4664 191.409 20.6606 190.066 20.6606C189.558 20.6606 188.961 20.5993 188.273 20.4766C187.586 20.3539 186.898 20.18 186.211 19.9551C185.534 19.7301 184.947 19.4643 184.45 19.1575C184.376 19.1166 184.317 18.9223 184.275 18.5746C184.243 18.2167 184.228 17.7822 184.228 17.2709C184.238 16.7494 184.27 16.2228 184.323 15.691C184.376 15.1593 184.46 14.6992 184.577 14.3106L185.703 14.3873C186.179 15.5939 186.861 16.5756 187.75 17.3322C188.649 18.0889 189.638 18.4673 190.716 18.4673C191.668 18.4673 192.52 18.2116 193.271 17.7004C194.022 17.1789 194.397 16.4324 194.397 15.461C194.397 14.6327 194.154 13.9425 193.667 13.3903C193.181 12.8381 192.557 12.3678 191.795 11.9792C191.044 11.5804 190.241 11.1969 189.384 10.8288C188.538 10.4607 187.734 10.0517 186.972 9.60175C186.211 9.15183 185.587 8.59965 185.1 7.94522C184.624 7.29079 184.386 6.46763 184.386 5.47576C184.386 5.00539 184.524 4.47877 184.799 3.89592C185.084 3.31306 185.518 2.76089 186.1 2.23939C186.692 1.70766 187.448 1.27308 188.368 0.935634C189.289 0.587967 190.389 0.414133 191.668 0.414133C192.811 0.414133 193.884 0.547065 194.889 0.812928C195.894 1.07879 196.592 1.41623 196.983 1.82525C197.057 1.88661 197.052 2.05021 196.967 2.31608C196.893 2.58194 196.772 2.88871 196.603 3.23637C196.444 3.57382 196.269 3.89081 196.079 4.18735C195.899 4.47366 195.746 4.67306 195.619 4.78554Z" fill="#111111"/>
<path d="M179.309 5.06163C179.309 6.37049 178.955 7.48507 178.246 8.40537C177.538 9.32566 176.586 10.0261 175.391 10.5067C174.206 10.9873 172.889 11.2276 171.44 11.2276C171.144 11.2276 170.837 11.2123 170.52 11.1816C170.213 11.1407 169.896 11.0845 169.568 11.0129L169.473 9.32566C169.843 9.38702 170.15 9.42792 170.393 9.44837C170.647 9.46882 170.906 9.47905 171.17 9.47905C172.598 9.47905 173.645 9.13138 174.312 8.43604C174.978 7.74071 175.311 6.7744 175.311 5.53711C175.311 4.90313 175.174 4.32539 174.899 3.80389C174.624 3.27216 174.148 2.8478 173.471 2.53081C172.794 2.2036 171.847 2.03999 170.631 2.03999C170.007 2.03999 169.288 2.08089 168.473 2.1627C167.659 2.23427 166.823 2.32119 165.966 2.42345C165.12 2.5257 164.338 2.63307 163.618 2.74555L163.412 1.33443C164.523 1.09924 165.739 0.889619 167.061 0.70556C168.394 0.511275 169.816 0.414133 171.329 0.414133C173.243 0.414133 174.782 0.618643 175.946 1.02766C177.12 1.43668 177.971 1.99397 178.5 2.69953C179.04 3.39487 179.309 4.18223 179.309 5.06163ZM182.673 19.4029C182.207 19.5461 181.673 19.6994 181.07 19.8631C180.478 20.0164 179.912 20.1443 179.373 20.2465C178.844 20.359 178.442 20.4152 178.167 20.4152C177.871 20.4152 177.575 20.3334 177.279 20.1698C176.982 19.996 176.76 19.7966 176.612 19.5716L171.853 10.8135L174.216 9.80115L179.88 17.3783C180.219 17.8077 180.552 18.0838 180.88 18.2065C181.208 18.319 181.726 18.3446 182.435 18.2832L182.673 19.4029ZM163.618 20.2005V19.0808C165.067 18.7945 165.792 18.4826 165.792 18.1452V1.80992H169.758V18.1452C169.758 18.2679 169.928 18.4213 170.266 18.6053C170.615 18.7791 171.176 18.9376 171.948 19.0808V20.2005H163.618Z" fill="#111111"/>
<path d="M161.159 1.36511C161.138 1.71277 161.091 2.17292 161.016 2.74555C160.953 3.31818 160.874 3.87547 160.779 4.41742C160.683 4.95937 160.593 5.36328 160.509 5.62914H159.319C159.224 3.6863 158.79 2.71487 158.018 2.71487H151.862L152.322 0.874281H160.525L161.159 1.36511ZM159.525 9.46371C159.356 9.75002 159.129 10.1079 158.843 10.5374C158.557 10.9566 158.298 11.2429 158.066 11.3963C157.738 11.0998 157.352 10.8851 156.907 10.7521C156.474 10.6192 155.813 10.5527 154.924 10.5527H151.64L151.989 8.92687H159.002L159.525 9.46371ZM162.191 15.5377C162.138 16.1205 162.069 16.7392 161.984 17.3936C161.91 18.0378 161.831 18.6155 161.746 19.1268C161.672 19.6381 161.604 19.996 161.54 20.2005H146.547V19.0808C147.996 18.7945 148.721 18.4826 148.721 18.1452V2.94495C148.721 2.82224 148.546 2.66886 148.197 2.4848C147.859 2.30074 147.309 2.13713 146.547 1.99397V0.874281H154.988V1.99397C154.279 2.06555 153.718 2.15247 153.306 2.25472C152.893 2.34675 152.687 2.46435 152.687 2.6075V17.3783C152.687 17.5725 152.761 17.7464 152.909 17.8998C153.068 18.0429 153.375 18.1554 153.829 18.2372C154.295 18.319 154.993 18.3599 155.924 18.3599H157.494C158.467 18.3599 159.187 18.1247 159.652 17.6543C160.117 17.1737 160.578 16.3353 161.032 15.1389L162.191 15.5377Z" fill="#111111"/>
<path d="M125.859 20.2005V19.0808C127.308 18.7945 128.032 18.4826 128.032 18.1452V2.43878C127.62 2.50014 127.229 2.55638 126.858 2.6075C126.488 2.65863 126.155 2.70465 125.859 2.74555L125.653 1.33443C126.351 1.1606 127.202 1.00721 128.207 0.874281C129.222 0.731124 130.269 0.618643 131.348 0.536839C132.438 0.455035 133.437 0.414133 134.347 0.414133C137.583 0.414133 140.09 1.2424 141.867 2.89893C143.654 4.55546 144.548 6.86643 144.548 9.83183C144.548 11.744 144.257 13.3647 143.676 14.6941C143.094 16.0131 142.332 17.0817 141.391 17.8998C140.45 18.7076 139.418 19.2955 138.297 19.6637C137.187 20.0215 136.087 20.2005 134.997 20.2005H133.712C132.475 20.2005 131.322 20.2005 130.253 20.2005C129.196 20.2005 127.937 20.2005 126.478 20.2005H125.859ZM134.41 18.5593C135.024 18.5593 135.669 18.4059 136.346 18.0992C137.033 17.7924 137.673 17.3118 138.266 16.6574C138.868 16.0029 139.355 15.1644 139.725 14.1419C140.106 13.1091 140.296 11.8718 140.296 10.43C140.296 7.71003 139.688 5.63426 138.472 4.20268C137.266 2.76089 135.51 2.03999 133.204 2.03999C133.014 2.03999 132.818 2.0451 132.617 2.05533C132.416 2.06555 132.21 2.07578 131.999 2.086V17.6083C131.999 18.0173 132.242 18.2781 132.729 18.3906C133.215 18.5031 133.776 18.5593 134.41 18.5593Z" fill="#111111"/>
<path d="M110.961 13.605L109.438 18.0378C109.343 18.3548 109.475 18.5849 109.835 18.728C110.194 18.8712 110.808 18.9888 111.675 19.0808V20.2005H104.742V19.0808C105.461 18.9581 106.011 18.8303 106.392 18.6973C106.783 18.5644 107.032 18.3446 107.138 18.0378L112.675 1.68721C113.172 1.26796 113.743 0.920296 114.388 0.644207C115.044 0.368118 115.647 0.153383 116.197 0L122.86 18.0378C122.966 18.3241 123.146 18.5491 123.4 18.7127C123.664 18.8763 124.14 18.999 124.828 19.0808V20.2005H116.942V19.0808C117.757 19.0297 118.312 18.9274 118.608 18.774C118.904 18.6207 118.994 18.3752 118.878 18.0378L117.26 13.605H110.961ZM116.593 11.7644L113.976 4.63216L111.596 11.7644H116.593Z" fill="#111111"/>
<path d="M101.442 5.06163C101.442 6.37049 101.088 7.48507 100.379 8.40537C99.6703 9.32566 98.7184 10.0261 97.5232 10.5067C96.3386 10.9873 95.0218 11.2276 93.5727 11.2276C93.2766 11.2276 92.9698 11.2123 92.6525 11.1816C92.3458 11.1407 92.0285 11.0845 91.7006 11.0129L91.6054 9.32566C91.9756 9.38702 92.2823 9.42792 92.5256 9.44837C92.7795 9.46882 93.0386 9.47905 93.303 9.47905C94.7309 9.47905 95.778 9.13138 96.4444 8.43604C97.1107 7.74071 97.4439 6.7744 97.4439 5.53711C97.4439 4.90313 97.3064 4.32539 97.0314 3.80389C96.7564 3.27216 96.2804 2.8478 95.6035 2.53081C94.9266 2.2036 93.9799 2.03999 92.7636 2.03999C92.1395 2.03999 91.4203 2.08089 90.6059 2.1627C89.7915 2.23427 88.9559 2.32119 88.0992 2.42345C87.253 2.5257 86.4703 2.63307 85.7511 2.74555L85.5448 1.33443C86.6554 1.09924 87.8718 0.889619 89.1939 0.70556C90.5266 0.511275 91.9492 0.414133 93.4617 0.414133C95.3761 0.414133 96.915 0.618643 98.0785 1.02766C99.2525 1.43668 100.104 1.99397 100.633 2.69953C101.172 3.39487 101.442 4.18223 101.442 5.06163ZM104.805 19.4029C104.34 19.5461 103.806 19.6994 103.203 19.8631C102.611 20.0164 102.045 20.1443 101.505 20.2465C100.977 20.359 100.575 20.4152 100.3 20.4152C100.004 20.4152 99.7073 20.3334 99.4112 20.1698C99.115 19.996 98.8929 19.7966 98.7448 19.5716L93.9852 10.8135L96.3492 9.80115L102.013 17.3783C102.352 17.8077 102.685 18.0838 103.013 18.2065C103.341 18.319 103.859 18.3446 104.567 18.2832L104.805 19.4029ZM85.7511 20.2005V19.0808C87.2001 18.7945 87.9246 18.4826 87.9246 18.1452V1.80992H91.891V18.1452C91.891 18.2679 92.0602 18.4213 92.3987 18.6053C92.7477 18.7791 93.3083 18.9376 94.0804 19.0808V20.2005H85.7511Z" fill="#111111"/>
<path d="M84.4819 1.36511C84.4713 1.71277 84.4343 2.15247 84.3708 2.6842C84.3073 3.21592 84.228 3.75787 84.1328 4.31005C84.0482 4.86223 83.9636 5.35305 83.879 5.78253H82.6891C82.4881 4.83155 82.3242 4.08509 82.1972 3.54314C82.0703 2.99096 81.7847 2.71487 81.3405 2.71487H76.4698L76.9299 0.874281H83.879L84.4819 1.36511ZM69.4256 2.71487C69.0977 2.71487 68.8016 2.95006 68.5371 3.42043C68.2727 3.89081 67.9025 4.72419 67.4266 5.92057L66.2684 5.50644C66.3001 5.10764 66.3477 4.61682 66.4112 4.03396C66.4852 3.44088 66.5646 2.85803 66.6492 2.2854C66.7444 1.70255 66.829 1.23217 66.903 0.874281H74.4708L74.677 2.71487H69.4256ZM70.9804 20.2005V19.0808C71.9535 18.8865 72.6093 18.6922 72.9477 18.4979C73.2862 18.2934 73.4554 18.1196 73.4554 17.9764V2.6075C73.4554 2.4848 73.3021 2.38766 72.9953 2.31608C72.6886 2.2445 72.1544 2.13713 71.3929 1.99397V0.874281H79.6905V1.99397C78.9819 2.13713 78.4266 2.23939 78.0247 2.30074C77.6227 2.36209 77.4218 2.46435 77.4218 2.6075V17.9764C77.4218 18.1094 77.591 18.2781 77.9295 18.4826C78.2679 18.6871 78.929 18.8865 79.9126 19.0808V20.2005H70.9804Z" fill="#111111"/>
<path d="M88.2261 27.2985C88.2102 27.8282 88.1468 28.5294 88.0357 29.402C87.9405 30.2746 87.8215 31.1238 87.6787 31.9496C87.5518 32.7754 87.4249 33.3909 87.298 33.796H85.4655C85.3703 30.8355 84.7198 29.3552 83.5141 29.3552H74.09L74.7802 26.5505H87.3218L88.2261 27.2985ZM84.9182 39.6392C84.6167 40.169 84.2518 40.7377 83.8234 41.3454C83.3951 41.9375 83.0143 42.3504 82.6811 42.5841C82.221 42.1323 81.6499 41.805 80.9677 41.6025C80.3013 41.3999 79.3097 41.2986 77.9929 41.2986H70.8773L73.6141 38.8211H84.0614L84.9182 39.6392ZM66.1177 56V54.2938C68.2912 53.8575 69.378 53.3823 69.378 52.8681V29.7058C69.378 29.5189 69.1162 29.2851 68.5927 29.0047C68.085 28.7242 67.26 28.4749 66.1177 28.2567V26.5505H78.7783V28.2567C77.8581 28.3658 77.0489 28.4982 76.3509 28.6541C75.6686 28.7943 75.3275 28.9735 75.3275 29.1916V52.8681C75.3275 53.0551 75.5972 53.2654 76.1367 53.4991C76.692 53.7329 77.7549 53.9977 79.3256 54.2938V56H66.1177Z" fill="#111111"/>
<path d="M125.444 28.2171C123.254 28.6584 122.16 29.1302 122.16 29.6325V43.3527C122.16 46.0161 121.652 48.2914 120.636 50.1786C119.637 52.0658 118.249 53.5116 116.472 54.5161C114.711 55.5054 112.688 56 110.403 56C108.23 56 106.239 55.6119 104.43 54.8357C102.621 54.0595 101.178 52.8724 100.099 51.2744C99.0198 49.6764 98.4804 47.6446 98.4804 45.179V29.6325C98.4804 29.4498 98.2186 29.2215 97.6951 28.9476C97.1874 28.6736 96.3624 28.4301 95.2201 28.2171V26.5505H107.714V28.2171C105.525 28.6584 104.43 29.1302 104.43 29.6325V43.6951C104.43 46.6173 104.993 48.8469 106.12 50.3841C107.246 51.9212 109.166 52.6898 111.879 52.6898C113.386 52.6898 114.584 52.2789 115.472 51.457C116.361 50.62 117.003 49.5394 117.4 48.2153C117.797 46.876 117.995 45.453 117.995 43.9463V29.6325C117.995 29.4498 117.733 29.2215 117.21 28.9476C116.702 28.6736 115.877 28.4301 114.735 28.2171V26.5505H125.444V28.2171Z" fill="#111111"/>
<path d="M162.78 28.2171C161.638 28.3692 160.805 28.5899 160.281 28.8791C159.758 29.1683 159.496 29.4194 159.496 29.6325V54.5846L155.926 53.6943V29.6325C155.926 29.4498 155.696 29.2139 155.236 28.9248C154.792 28.6204 153.935 28.3845 152.666 28.2171V26.5505H162.78V28.2171ZM159.496 56C157.989 55.8782 156.767 55.5967 155.831 55.1553C154.911 54.6987 154.237 54.1889 153.808 53.6258L137.078 31.3903C136.428 30.5228 135.698 29.8075 134.889 29.2444C134.08 28.6812 133.263 28.3388 132.438 28.2171V26.5505H139.077C139.537 26.5505 139.886 26.6495 140.124 26.8473C140.362 27.0452 140.775 27.5398 141.362 28.3312L156.331 48.2153C156.505 48.4436 156.759 48.7708 157.092 49.1969C157.441 49.6079 157.798 50.034 158.163 50.4754C158.528 50.9167 158.838 51.2896 159.091 51.594C159.361 51.8984 159.496 52.0506 159.496 52.0506V56ZM132.438 55.3151V53.6486C133.596 53.5116 134.429 53.2986 134.936 53.0094C135.444 52.705 135.698 52.4539 135.698 52.256V28.6965L139.268 27.4409V52.256C139.268 52.4387 139.506 52.6746 139.982 52.9637C140.458 53.2529 141.314 53.4812 142.552 53.6486V55.3151H132.438Z" fill="#111111"/>
<path d="M170.084 56V54.3335C172.257 53.9073 173.344 53.4431 173.344 52.9409V29.564C172.725 29.6553 172.138 29.739 171.583 29.8151C171.028 29.8912 170.528 29.9597 170.084 30.0205L169.774 27.9203C170.821 27.6615 172.098 27.4333 173.606 27.2354C175.129 27.0223 176.699 26.8549 178.318 26.7332C179.952 26.6114 181.451 26.5505 182.816 26.5505C187.67 26.5505 191.43 27.7833 194.096 30.2488C196.777 32.7144 198.118 36.1539 198.118 40.5676C198.118 43.4136 197.681 45.8259 196.809 47.8044C195.936 49.7677 194.794 51.3581 193.382 52.5756C191.97 53.778 190.423 54.6531 188.741 55.201C187.075 55.7337 185.425 56 183.791 56H181.864C180.007 56 178.278 56 176.676 56C175.089 56 173.201 56 171.012 56H170.084ZM182.911 53.5573C183.831 53.5573 184.799 53.329 185.814 52.8724C186.845 52.4158 187.805 51.7005 188.694 50.7265C189.598 49.7524 190.328 48.5045 190.883 46.9825C191.454 45.4454 191.74 43.6038 191.74 41.4579C191.74 37.4095 190.828 34.32 189.003 32.1893C187.194 30.0434 184.561 28.9704 181.102 28.9704C180.816 28.9704 180.523 28.978 180.222 28.9932C179.92 29.0085 179.611 29.0237 179.293 29.0389V52.1419C179.293 52.7507 179.658 53.1388 180.388 53.3062C181.118 53.4736 181.959 53.5573 182.911 53.5573Z" fill="#111111"/>
</svg>
