<svg width="101" height="101" viewBox="0 0 101 101" fill="none" xmlns="http://www.w3.org/2000/svg">
<g clip-path="url(#clip0_4_20)">
<path d="M99.7342 48.4146L90.2688 57.6987C90.3801 58.1461 90.4915 58.5935 90.4915 59.041C90.4915 61.6137 88.5984 63.8508 86.1485 64.1864V99.3094C86.1485 99.7568 85.8144 100.092 85.369 100.092C84.9236 100.092 84.5895 99.7568 84.5895 99.3094V64.2982C82.1396 63.9627 80.2465 61.7255 80.2465 59.1528C80.2465 58.7054 80.3578 58.1461 80.4692 57.6987L69.6674 46.8486C69.222 47.0723 68.6652 47.1841 68.1084 47.1841V99.3094C68.1084 99.7568 67.7743 100.092 67.3289 100.092C66.8835 100.092 66.5494 99.7568 66.5494 99.3094V47.0723C66.3267 47.0723 66.104 46.9604 65.8812 46.8486L50.0683 62.8441V99.3094C50.0683 99.7568 49.7342 100.092 49.2888 100.092C48.8434 100.092 48.5093 99.7568 48.5093 99.3094V64.4101L36.0371 76.938C36.2598 77.4973 36.4826 78.2803 36.4826 78.9515C36.4826 81.5242 34.5895 83.7613 32.1396 84.0969V99.3094C32.1396 99.7568 31.8055 100.092 31.3601 100.092C30.9146 100.092 30.5806 99.7568 30.5806 99.3094V84.0969C28.1307 83.7613 26.2376 81.5242 26.2376 78.9515C26.2376 78.3922 26.3489 77.8329 26.4603 77.3855L14.4336 65.3049H14.0995V99.3094C14.0995 99.7568 13.7654 100.092 13.32 100.092C12.8746 100.092 12.5405 99.7568 12.5405 99.3094V65.4168C11.9837 65.3049 11.5382 65.1931 10.9815 64.9694L2.96364 73.0231C2.29549 73.6942 1.29326 73.6942 0.736465 73.0231C0.0683137 72.3519 0.0683137 71.3452 0.736465 70.7859L8.75428 62.7322C8.42021 62.0611 8.19749 61.2781 8.19749 60.3832C8.19749 57.8105 10.0906 55.6852 12.5405 55.2378V4.45482C11.6496 4.11925 11.0928 3.33626 11.0928 2.32954C11.0928 1.09912 12.095 0.0924072 13.32 0.0924072C14.5449 0.0924072 15.5472 1.09912 15.5472 2.32954C15.5472 3.33626 14.879 4.11925 14.0995 4.45482V55.126C16.5494 55.4615 18.4425 57.6987 18.4425 60.2714C18.4425 61.5018 17.997 62.7322 17.2175 63.6271L28.242 74.8128C28.9102 74.3653 29.6897 74.0298 30.4692 73.9179V4.56668C29.5783 4.23111 29.0215 3.44811 29.0215 2.4414C29.0215 1.21098 30.0238 0.204264 31.2487 0.204264C32.4737 0.204264 33.4759 1.21098 33.4759 2.4414C33.4759 3.44811 32.9191 4.23111 32.0282 4.56668V73.9179C32.6964 74.0298 33.3645 74.2535 33.81 74.5891L48.3979 59.9358V4.45482C47.5071 4.11925 46.9503 3.33626 46.9503 2.32954C46.9503 1.09912 47.9525 0.0924072 49.1774 0.0924072C50.4024 0.0924072 51.4046 1.09912 51.4046 2.32954C51.4046 3.33626 50.8478 4.11925 49.957 4.45482V58.1461L63.0973 44.8351C62.5405 44.0521 62.2064 43.0454 62.2064 41.9269C62.2064 39.466 63.9881 37.3407 66.2153 36.8933V4.45482C65.3244 4.11925 64.7676 3.33626 64.7676 2.32954C64.7676 1.09912 65.7699 0.0924072 66.9948 0.0924072C68.2198 0.0924072 69.222 1.09912 69.222 2.32954C69.222 3.33626 68.6652 4.11925 67.7743 4.45482V36.7814C68.4425 36.7814 68.9993 37.0052 69.5561 37.3407C71.2264 38.2356 72.4514 39.9134 72.4514 42.0387C72.4514 43.0454 72.2287 43.9403 71.6719 44.7233L81.9169 55.0141C82.585 54.4548 83.3645 54.1193 84.2554 54.0074V4.45482C83.3645 4.11925 82.8077 3.33626 82.8077 2.32954C82.8077 1.09912 83.81 0.0924072 85.0349 0.0924072C86.2599 0.0924072 87.2621 1.09912 87.2621 2.32954C87.2621 3.33626 86.7053 4.11925 85.8144 4.45482V54.0074C86.7053 54.1193 87.4848 54.4548 88.1529 55.0141L97.173 45.9537C97.8411 45.2826 98.9547 45.2826 99.7342 45.9537C100.402 46.6248 100.402 47.7434 99.7342 48.4146Z" fill="#111111"/>
</g>
<defs>
<clipPath id="clip0_4_20">
<rect width="100" height="100" fill="white" transform="translate(0.235352 0.0924072)"/>
</clipPath>
</defs>
</svg>
