<svg width="100" height="101" viewBox="0 0 100 101" fill="none" xmlns="http://www.w3.org/2000/svg">
<g clip-path="url(#clip0_692_6998)">
<path d="M99.4989 48.4146L90.0334 57.6987C90.1448 58.1461 90.2561 58.5935 90.2561 59.041C90.2561 61.6137 88.363 63.8508 85.9131 64.1864V99.3094C85.9131 99.7568 85.5791 100.092 85.1336 100.092C84.6882 100.092 84.3541 99.7568 84.3541 99.3094V64.2982C81.9042 63.9627 80.0111 61.7255 80.0111 59.1528C80.0111 58.7054 80.1225 58.1461 80.2339 57.6987L69.4321 46.8486C68.9866 47.0723 68.4298 47.1841 67.8731 47.1841V99.3094C67.8731 99.7568 67.539 100.092 67.0935 100.092C66.6481 100.092 66.314 99.7568 66.314 99.3094V47.0723C66.0913 47.0723 65.8686 46.9604 65.6459 46.8486L49.833 62.8441V99.3094C49.833 99.7568 49.4989 100.092 49.0535 100.092C48.608 100.092 48.2739 99.7568 48.2739 99.3094V64.4101L35.8018 76.938C36.0245 77.4973 36.2472 78.2803 36.2472 78.9515C36.2472 81.5242 34.3541 83.7613 31.9042 84.0969V99.3094C31.9042 99.7568 31.5702 100.092 31.1247 100.092C30.6793 100.092 30.3452 99.7568 30.3452 99.3094V84.0969C27.8953 83.7613 26.0022 81.5242 26.0022 78.9515C26.0022 78.3922 26.1136 77.8329 26.2249 77.3855L14.1982 65.3049H13.8641V99.3094C13.8641 99.7568 13.5301 100.092 13.0846 100.092C12.6392 100.092 12.3051 99.7568 12.3051 99.3094V65.4168C11.7483 65.3049 11.3029 65.1931 10.7461 64.9694L2.72829 73.0231C2.06013 73.6942 1.05791 73.6942 0.501114 73.0231C-0.167038 72.3519 -0.167038 71.3452 0.501114 70.7859L8.51893 62.7322C8.18486 62.0611 7.96214 61.2781 7.96214 60.3832C7.96214 57.8105 9.85524 55.6852 12.3051 55.2378V4.45482C11.4143 4.11925 10.8575 3.33626 10.8575 2.32954C10.8575 1.09912 11.8597 0.0924072 13.0846 0.0924072C14.3096 0.0924072 15.3118 1.09912 15.3118 2.32954C15.3118 3.33626 14.6437 4.11925 13.8641 4.45482V55.126C16.314 55.4615 18.2071 57.6987 18.2071 60.2714C18.2071 61.5018 17.7617 62.7322 16.9822 63.6271L28.0067 74.8128C28.6748 74.3653 29.4543 74.0298 30.2339 73.9179V4.56668C29.343 4.23111 28.7862 3.44811 28.7862 2.4414C28.7862 1.21098 29.7884 0.204264 31.0134 0.204264C32.2383 0.204264 33.2405 1.21098 33.2405 2.4414C33.2405 3.44811 32.6837 4.23111 31.7929 4.56668V73.9179C32.461 74.0298 33.1292 74.2535 33.5746 74.5891L48.1626 59.9358V4.45482C47.2717 4.11925 46.7149 3.33626 46.7149 2.32954C46.7149 1.09912 47.7171 0.0924072 48.9421 0.0924072C50.167 0.0924072 51.1693 1.09912 51.1693 2.32954C51.1693 3.33626 50.6125 4.11925 49.7216 4.45482V58.1461L62.8619 44.8351C62.3051 44.0521 61.9711 43.0454 61.9711 41.9269C61.9711 39.466 63.7528 37.3407 65.98 36.8933V4.45482C65.0891 4.11925 64.5323 3.33626 64.5323 2.32954C64.5323 1.09912 65.5345 0.0924072 66.7595 0.0924072C67.9844 0.0924072 68.9866 1.09912 68.9866 2.32954C68.9866 3.33626 68.4298 4.11925 67.539 4.45482V36.7814C68.2071 36.7814 68.7639 37.0052 69.3207 37.3407C70.9911 38.2356 72.216 39.9134 72.216 42.0387C72.216 43.0454 71.9933 43.9403 71.4365 44.7233L81.6815 55.0141C82.3497 54.4548 83.1292 54.1193 84.0201 54.0074V4.45482C83.1292 4.11925 82.5724 3.33626 82.5724 2.32954C82.5724 1.09912 83.5746 0.0924072 84.7996 0.0924072C86.0245 0.0924072 87.0267 1.09912 87.0267 2.32954C87.0267 3.33626 86.4699 4.11925 85.5791 4.45482V54.0074C86.4699 54.1193 87.2494 54.4548 87.9176 55.0141L96.9376 45.9537C97.6058 45.2826 98.7194 45.2826 99.4989 45.9537C100.167 46.6248 100.167 47.7434 99.4989 48.4146Z" fill="white"/>
</g>
<defs>
<clipPath id="clip0_692_6998">
<rect width="100" height="100" fill="white" transform="translate(0 0.0924072)"/>
</clipPath>
</defs>
</svg>
