<svg width="199" height="56" viewBox="0 0 199 56" fill="none" xmlns="http://www.w3.org/2000/svg">
<path d="M55.8959 27.0604L50.5952 32.2595C50.6576 32.5101 50.7199 32.7606 50.7199 33.0112C50.7199 34.4519 49.6598 35.7047 48.2879 35.8926V55.5615C48.2879 55.8121 48.1008 56 47.8513 56C47.6019 56 47.4148 55.8121 47.4148 55.5615V35.9553C46.0429 35.7673 44.9827 34.5145 44.9827 33.0738C44.9827 32.8233 45.0451 32.5101 45.1075 32.2595L39.0585 26.1834C38.809 26.3087 38.4972 26.3714 38.1854 26.3714V55.5615C38.1854 55.8121 37.9983 56 37.7489 56C37.4995 56 37.3124 55.8121 37.3124 55.5615V26.3087C37.1876 26.3087 37.0629 26.2461 36.9382 26.1834L28.083 35.1409V55.5615C28.083 55.8121 27.8959 56 27.6464 56C27.397 56 27.2099 55.8121 27.2099 55.5615V36.0179L20.2255 43.0336C20.3502 43.3468 20.475 43.7852 20.475 44.1611C20.475 45.6018 19.4148 46.8546 18.0429 47.0425V55.5615C18.0429 55.8121 17.8558 56 17.6064 56C17.3569 56 17.1698 55.8121 17.1698 55.5615V47.0425C15.7979 46.8546 14.7378 45.6018 14.7378 44.1611C14.7378 43.8479 14.8001 43.5347 14.8625 43.2841L8.12752 36.519H7.94043V55.5615C7.94043 55.8121 7.75335 56 7.50391 56C7.25446 56 7.06738 55.8121 7.06738 55.5615V36.5817C6.75558 36.519 6.50613 36.4564 6.19433 36.3311L1.70435 40.8412C1.33019 41.217 0.768941 41.217 0.457137 40.8412C0.0829725 40.4653 0.0829725 39.9016 0.457137 39.5884L4.94711 35.0783C4.76003 34.7025 4.63531 34.264 4.63531 33.7629C4.63531 32.3222 5.69545 31.132 7.06738 30.8814V2.44295C6.5685 2.25503 6.25669 1.81656 6.25669 1.2528C6.25669 0.563758 6.81794 0 7.50391 0C8.18988 0 8.75112 0.563758 8.75112 1.2528C8.75112 1.81656 8.37696 2.25503 7.94043 2.44295V30.8188C9.31237 31.0067 10.3725 32.2595 10.3725 33.7002C10.3725 34.3893 10.1231 35.0783 9.68654 35.5794L15.8603 41.8434C16.2344 41.5928 16.6709 41.4049 17.1075 41.3423V2.50559C16.6086 2.31767 16.2968 1.87919 16.2968 1.31544C16.2968 0.626398 16.858 0.0626398 17.544 0.0626398C18.23 0.0626398 18.7912 0.626398 18.7912 1.31544C18.7912 1.87919 18.4794 2.31767 17.9805 2.50559V41.3423C18.3547 41.4049 18.7289 41.5302 18.9783 41.7181L27.1476 33.5123V2.44295C26.6487 2.25503 26.3369 1.81656 26.3369 1.2528C26.3369 0.563758 26.8981 0 27.5841 0C28.2701 0 28.8313 0.563758 28.8313 1.2528C28.8313 1.81656 28.5195 2.25503 28.0206 2.44295V32.5101L35.3792 25.0559C35.0674 24.6175 34.8803 24.0537 34.8803 23.4273C34.8803 22.0492 35.8781 20.8591 37.1253 20.6085V2.44295C36.6264 2.25503 36.3146 1.81656 36.3146 1.2528C36.3146 0.563758 36.8758 0 37.5618 0C38.2478 0 38.809 0.563758 38.809 1.2528C38.809 1.81656 38.4972 2.25503 37.9983 2.44295V20.5459C38.3725 20.5459 38.6843 20.6711 38.9961 20.8591C39.9315 21.3602 40.6175 22.2998 40.6175 23.4899C40.6175 24.0537 40.4928 24.5548 40.181 24.9933L45.9182 30.7562C46.2923 30.443 46.7288 30.255 47.2277 30.1924V2.44295C46.7288 2.25503 46.417 1.81656 46.417 1.2528C46.417 0.563758 46.9783 0 47.6643 0C48.3502 0 48.9115 0.563758 48.9115 1.2528C48.9115 1.81656 48.5997 2.25503 48.1008 2.44295V30.1924C48.5997 30.255 49.0362 30.443 49.4104 30.7562L54.4616 25.6823C54.8358 25.3065 55.4594 25.3065 55.8959 25.6823C56.2701 26.0582 56.2701 26.6846 55.8959 27.0604Z" fill="white"/>
<path d="M195.678 4.78554L194.631 4.69351C194.165 3.73231 193.578 3.07277 192.87 2.71487C192.171 2.35698 191.521 2.17803 190.918 2.17803C189.86 2.17803 189.099 2.42345 188.633 2.91427C188.168 3.40509 187.935 3.94193 187.935 4.52479C187.935 5.16899 188.179 5.72628 188.665 6.19666C189.152 6.65681 189.776 7.08116 190.537 7.46973C191.309 7.8583 192.124 8.25199 192.981 8.65078C193.837 9.04958 194.646 9.50461 195.408 10.0159C196.18 10.5272 196.809 11.1356 197.296 11.8411C197.783 12.5467 198.026 13.4056 198.026 14.418C198.026 15.1031 197.862 15.8086 197.534 16.5346C197.217 17.2607 196.73 17.9355 196.074 18.5593C195.429 19.1831 194.609 19.6892 193.615 20.0778C192.632 20.4664 191.468 20.6606 190.125 20.6606C189.617 20.6606 189.02 20.5993 188.332 20.4766C187.645 20.3539 186.957 20.18 186.27 19.9551C185.593 19.7301 185.006 19.4643 184.508 19.1575C184.434 19.1166 184.376 18.9223 184.334 18.5746C184.302 18.2167 184.286 17.7822 184.286 17.2709C184.297 16.7494 184.329 16.2228 184.382 15.691C184.434 15.1593 184.519 14.6992 184.635 14.3106L185.762 14.3873C186.238 15.5939 186.92 16.5756 187.808 17.3322C188.708 18.0889 189.696 18.4673 190.775 18.4673C191.727 18.4673 192.579 18.2116 193.33 17.7004C194.081 17.1789 194.456 16.4324 194.456 15.461C194.456 14.6327 194.213 13.9425 193.726 13.3903C193.24 12.8381 192.616 12.3678 191.854 11.9792C191.103 11.5804 190.299 11.1969 189.443 10.8288C188.596 10.4607 187.793 10.0517 187.031 9.60175C186.27 9.15183 185.646 8.59965 185.159 7.94522C184.683 7.29079 184.445 6.46763 184.445 5.47576C184.445 5.00539 184.583 4.47877 184.858 3.89592C185.143 3.31306 185.577 2.76089 186.158 2.23939C186.751 1.70766 187.507 1.27308 188.427 0.935634C189.347 0.587967 190.447 0.414133 191.727 0.414133C192.87 0.414133 193.943 0.547065 194.948 0.812928C195.953 1.07879 196.651 1.41623 197.042 1.82525C197.116 1.88661 197.111 2.05021 197.026 2.31608C196.952 2.58194 196.831 2.88871 196.661 3.23637C196.503 3.57382 196.328 3.89081 196.138 4.18735C195.958 4.47366 195.805 4.67306 195.678 4.78554Z" fill="white"/>
<path d="M179.368 5.06163C179.368 6.37049 179.014 7.48507 178.305 8.40537C177.596 9.32566 176.645 10.0261 175.449 10.5067C174.265 10.9873 172.948 11.2276 171.499 11.2276C171.203 11.2276 170.896 11.2123 170.579 11.1816C170.272 11.1407 169.955 11.0845 169.627 11.0129L169.532 9.32566C169.902 9.38702 170.208 9.42792 170.452 9.44837C170.706 9.46882 170.965 9.47905 171.229 9.47905C172.657 9.47905 173.704 9.13138 174.371 8.43604C175.037 7.74071 175.37 6.7744 175.37 5.53711C175.37 4.90313 175.233 4.32539 174.958 3.80389C174.683 3.27216 174.207 2.8478 173.53 2.53081C172.853 2.2036 171.906 2.03999 170.69 2.03999C170.066 2.03999 169.346 2.08089 168.532 2.1627C167.718 2.23427 166.882 2.32119 166.025 2.42345C165.179 2.5257 164.396 2.63307 163.677 2.74555L163.471 1.33443C164.582 1.09924 165.798 0.889619 167.12 0.70556C168.453 0.511275 169.875 0.414133 171.388 0.414133C173.302 0.414133 174.841 0.618643 176.005 1.02766C177.179 1.43668 178.03 1.99397 178.559 2.69953C179.098 3.39487 179.368 4.18223 179.368 5.06163ZM182.732 19.4029C182.266 19.5461 181.732 19.6994 181.129 19.8631C180.537 20.0164 179.971 20.1443 179.432 20.2465C178.903 20.359 178.501 20.4152 178.226 20.4152C177.93 20.4152 177.633 20.3334 177.337 20.1698C177.041 19.996 176.819 19.7966 176.671 19.5716L171.911 10.8135L174.275 9.80115L179.939 17.3783C180.278 17.8077 180.611 18.0838 180.939 18.2065C181.267 18.319 181.785 18.3446 182.494 18.2832L182.732 19.4029ZM163.677 20.2005V19.0808C165.126 18.7945 165.851 18.4826 165.851 18.1452V1.80992H169.817V18.1452C169.817 18.2679 169.986 18.4213 170.325 18.6053C170.674 18.7791 171.234 18.9376 172.007 19.0808V20.2005H163.677Z" fill="white"/>
<path d="M161.218 1.36511C161.197 1.71277 161.149 2.17292 161.075 2.74555C161.012 3.31818 160.933 3.87547 160.837 4.41742C160.742 4.95937 160.652 5.36328 160.568 5.62914H159.378C159.283 3.6863 158.849 2.71487 158.077 2.71487H151.921L152.381 0.874281H160.583L161.218 1.36511ZM159.584 9.46371C159.415 9.75002 159.187 10.1079 158.902 10.5374C158.616 10.9566 158.357 11.2429 158.124 11.3963C157.796 11.0998 157.41 10.8851 156.966 10.7521C156.533 10.6192 155.871 10.5527 154.983 10.5527H151.699L152.048 8.92687H159.06L159.584 9.46371ZM162.249 15.5377C162.196 16.1205 162.128 16.7392 162.043 17.3936C161.969 18.0378 161.89 18.6155 161.805 19.1268C161.731 19.6381 161.662 19.996 161.599 20.2005H146.606V19.0808C148.055 18.7945 148.78 18.4826 148.78 18.1452V2.94495C148.78 2.82224 148.605 2.66886 148.256 2.4848C147.918 2.30074 147.368 2.13713 146.606 1.99397V0.874281H155.046V1.99397C154.338 2.06555 153.777 2.15247 153.365 2.25472C152.952 2.34675 152.746 2.46435 152.746 2.6075V17.3783C152.746 17.5725 152.82 17.7464 152.968 17.8998C153.127 18.0429 153.433 18.1554 153.888 18.2372C154.354 18.319 155.052 18.3599 155.983 18.3599H157.553C158.526 18.3599 159.246 18.1247 159.711 17.6543C160.176 17.1737 160.636 16.3353 161.091 15.1389L162.249 15.5377Z" fill="white"/>
<path d="M125.918 20.2005V19.0808C127.367 18.7945 128.091 18.4826 128.091 18.1452V2.43878C127.679 2.50014 127.287 2.55638 126.917 2.6075C126.547 2.65863 126.214 2.70465 125.918 2.74555L125.711 1.33443C126.409 1.1606 127.261 1.00721 128.266 0.874281C129.281 0.731124 130.328 0.618643 131.407 0.536839C132.496 0.455035 133.496 0.414133 134.406 0.414133C137.642 0.414133 140.149 1.2424 141.926 2.89893C143.713 4.55546 144.607 6.86643 144.607 9.83183C144.607 11.744 144.316 13.3647 143.734 14.6941C143.153 16.0131 142.391 17.0817 141.45 17.8998C140.508 18.7076 139.477 19.2955 138.356 19.6637C137.245 20.0215 136.146 20.2005 135.056 20.2005H133.771C132.533 20.2005 131.381 20.2005 130.312 20.2005C129.255 20.2005 127.996 20.2005 126.536 20.2005H125.918ZM134.469 18.5593C135.083 18.5593 135.728 18.4059 136.405 18.0992C137.092 17.7924 137.732 17.3118 138.324 16.6574C138.927 16.0029 139.414 15.1644 139.784 14.1419C140.165 13.1091 140.355 11.8718 140.355 10.43C140.355 7.71003 139.747 5.63426 138.531 4.20268C137.325 2.76089 135.569 2.03999 133.263 2.03999C133.073 2.03999 132.877 2.0451 132.676 2.05533C132.475 2.06555 132.269 2.07578 132.058 2.086V17.6083C132.058 18.0173 132.301 18.2781 132.787 18.3906C133.274 18.5031 133.834 18.5593 134.469 18.5593Z" fill="white"/>
<path d="M111.02 13.605L109.497 18.0378C109.402 18.3548 109.534 18.5849 109.894 18.728C110.253 18.8712 110.867 18.9888 111.734 19.0808V20.2005H104.801V19.0808C105.52 18.9581 106.07 18.8303 106.451 18.6973C106.842 18.5644 107.091 18.3446 107.196 18.0378L112.733 1.68721C113.231 1.26796 113.802 0.920296 114.447 0.644207C115.103 0.368118 115.706 0.153383 116.256 0L122.919 18.0378C123.025 18.3241 123.205 18.5491 123.458 18.7127C123.723 18.8763 124.199 18.999 124.886 19.0808V20.2005H117.001V19.0808C117.816 19.0297 118.371 18.9274 118.667 18.774C118.963 18.6207 119.053 18.3752 118.937 18.0378L117.319 13.605H111.02ZM116.652 11.7644L114.034 4.63216L111.655 11.7644H116.652Z" fill="white"/>
<path d="M101.501 5.06163C101.501 6.37049 101.146 7.48507 100.438 8.40537C99.7292 9.32566 98.7772 10.0261 97.582 10.5067C96.3974 10.9873 95.0806 11.2276 93.6316 11.2276C93.3354 11.2276 93.0287 11.2123 92.7114 11.1816C92.4046 11.1407 92.0873 11.0845 91.7594 11.0129L91.6643 9.32566C92.0344 9.38702 92.3412 9.42792 92.5844 9.44837C92.8383 9.46882 93.0974 9.47905 93.3619 9.47905C94.7897 9.47905 95.8369 9.13138 96.5032 8.43604C97.1695 7.74071 97.5027 6.7744 97.5027 5.53711C97.5027 4.90313 97.3652 4.32539 97.0902 3.80389C96.8152 3.27216 96.3393 2.8478 95.6623 2.53081C94.9854 2.2036 94.0388 2.03999 92.8224 2.03999C92.1984 2.03999 91.4792 2.08089 90.6647 2.1627C89.8503 2.23427 89.0147 2.32119 88.158 2.42345C87.3119 2.5257 86.5292 2.63307 85.8099 2.74555L85.6037 1.33443C86.7143 1.09924 87.9306 0.889619 89.2527 0.70556C90.5854 0.511275 92.008 0.414133 93.5205 0.414133C95.4349 0.414133 96.9739 0.618643 98.1373 1.02766C99.3114 1.43668 100.163 1.99397 100.692 2.69953C101.231 3.39487 101.501 4.18223 101.501 5.06163ZM104.864 19.4029C104.399 19.5461 103.865 19.6994 103.262 19.8631C102.67 20.0164 102.104 20.1443 101.564 20.2465C101.035 20.359 100.633 20.4152 100.358 20.4152C100.062 20.4152 99.7662 20.3334 99.47 20.1698C99.1739 19.996 98.9518 19.7966 98.8037 19.5716L94.0441 10.8135L96.408 9.80115L102.072 17.3783C102.41 17.8077 102.744 18.0838 103.071 18.2065C103.399 18.319 103.918 18.3446 104.626 18.2832L104.864 19.4029ZM85.8099 20.2005V19.0808C87.259 18.7945 87.9835 18.4826 87.9835 18.1452V1.80992H91.9498V18.1452C91.9498 18.2679 92.1191 18.4213 92.4575 18.6053C92.8066 18.7791 93.3671 18.9376 94.1393 19.0808V20.2005H85.8099Z" fill="white"/>
<path d="M84.5407 1.36511C84.5301 1.71277 84.4931 2.15247 84.4296 2.6842C84.3662 3.21592 84.2868 3.75787 84.1917 4.31005C84.107 4.86223 84.0224 5.35305 83.9378 5.78253H82.7479C82.547 4.83155 82.383 4.08509 82.2561 3.54314C82.1292 2.99096 81.8436 2.71487 81.3994 2.71487H76.5287L76.9888 0.874281H83.9378L84.5407 1.36511ZM69.4844 2.71487C69.1566 2.71487 68.8604 2.95006 68.596 3.42043C68.3316 3.89081 67.9614 4.72419 67.4854 5.92057L66.3272 5.50644C66.359 5.10764 66.4066 4.61682 66.47 4.03396C66.5441 3.44088 66.6234 2.85803 66.708 2.2854C66.8032 1.70255 66.8878 1.23217 66.9619 0.874281H74.5296L74.7359 2.71487H69.4844ZM71.0393 20.2005V19.0808C72.0123 18.8865 72.6681 18.6922 73.0066 18.4979C73.345 18.2934 73.5143 18.1196 73.5143 17.9764V2.6075C73.5143 2.4848 73.3609 2.38766 73.0542 2.31608C72.7474 2.2445 72.2133 2.13713 71.4518 1.99397V0.874281H79.7494V1.99397C79.0407 2.13713 78.4854 2.23939 78.0835 2.30074C77.6816 2.36209 77.4806 2.46435 77.4806 2.6075V17.9764C77.4806 18.1094 77.6498 18.2781 77.9883 18.4826C78.3268 18.6871 78.9878 18.8865 79.9715 19.0808V20.2005H71.0393Z" fill="white"/>
<path d="M88.2849 27.2985C88.2691 27.8282 88.2056 28.5294 88.0945 29.402C87.9994 30.2746 87.8804 31.1238 87.7376 31.9496C87.6106 32.7754 87.4837 33.3909 87.3568 33.796H85.5244C85.4292 30.8355 84.7787 29.3552 83.5729 29.3552H74.1489L74.839 26.5505H87.3806L88.2849 27.2985ZM84.977 39.6392C84.6756 40.169 84.3107 40.7377 83.8823 41.3454C83.4539 41.9375 83.0732 42.3504 82.74 42.5841C82.2799 42.1323 81.7087 41.805 81.0265 41.6025C80.3602 41.3999 79.3686 41.2986 78.0518 41.2986H70.9361L73.6729 38.8211H84.1203L84.977 39.6392ZM66.1765 56V54.2938C68.3501 53.8575 69.4369 53.3823 69.4369 52.8681V29.7058C69.4369 29.5189 69.1751 29.2851 68.6515 29.0047C68.1438 28.7242 67.3188 28.4749 66.1765 28.2567V26.5505H78.8371V28.2567C77.9169 28.3658 77.1078 28.4982 76.4097 28.6541C75.7275 28.7943 75.3864 28.9735 75.3864 29.1916V52.8681C75.3864 53.0551 75.6561 53.2654 76.1955 53.4991C76.7508 53.7329 77.8138 53.9977 79.3844 54.2938V56H66.1765Z" fill="white"/>
<path d="M125.502 28.2171C123.313 28.6584 122.218 29.1302 122.218 29.6325V43.3527C122.218 46.0161 121.711 48.2914 120.695 50.1786C119.696 52.0658 118.308 53.5116 116.531 54.5161C114.77 55.5054 112.747 56 110.462 56C108.289 56 106.297 55.6119 104.489 54.8357C102.68 54.0595 101.236 52.8724 100.158 51.2744C99.0787 49.6764 98.5393 47.6446 98.5393 45.179V29.6325C98.5393 29.4498 98.2775 29.2215 97.7539 28.9476C97.2462 28.6736 96.4212 28.4301 95.2789 28.2171V26.5505H107.773V28.2171C105.583 28.6584 104.489 29.1302 104.489 29.6325V43.6951C104.489 46.6173 105.052 48.8469 106.178 50.3841C107.305 51.9212 109.225 52.6898 111.938 52.6898C113.445 52.6898 114.643 52.2789 115.531 51.457C116.42 50.62 117.062 49.5394 117.459 48.2153C117.855 46.876 118.054 45.453 118.054 43.9463V29.6325C118.054 29.4498 117.792 29.2215 117.268 28.9476C116.761 28.6736 115.936 28.4301 114.793 28.2171V26.5505H125.502V28.2171Z" fill="white"/>
<path d="M162.839 28.2171C161.697 28.3692 160.864 28.5899 160.34 28.8791C159.817 29.1683 159.555 29.4194 159.555 29.6325V54.5846L155.985 53.6943V29.6325C155.985 29.4498 155.755 29.2139 155.295 28.9248C154.851 28.6204 153.994 28.3845 152.725 28.2171V26.5505H162.839V28.2171ZM159.555 56C158.048 55.8782 156.826 55.5967 155.89 55.1553C154.97 54.6987 154.296 54.1889 153.867 53.6258L137.137 31.3903C136.487 30.5228 135.757 29.8075 134.948 29.2444C134.139 28.6812 133.321 28.3388 132.496 28.2171V26.5505H139.136C139.596 26.5505 139.945 26.6495 140.183 26.8473C140.421 27.0452 140.834 27.5398 141.421 28.3312L156.39 48.2153C156.564 48.4436 156.818 48.7708 157.151 49.1969C157.5 49.6079 157.857 50.034 158.222 50.4754C158.587 50.9167 158.896 51.2896 159.15 51.594C159.42 51.8984 159.555 52.0506 159.555 52.0506V56ZM132.496 55.3151V53.6486C133.655 53.5116 134.488 53.2986 134.995 53.0094C135.503 52.705 135.757 52.4539 135.757 52.256V28.6965L139.327 27.4409V52.256C139.327 52.4387 139.564 52.6746 140.04 52.9637C140.516 53.2529 141.373 53.4812 142.611 53.6486V55.3151H132.496Z" fill="white"/>
<path d="M170.142 56V54.3335C172.316 53.9073 173.403 53.4431 173.403 52.9409V29.564C172.784 29.6553 172.197 29.739 171.642 29.8151C171.086 29.8912 170.587 29.9597 170.142 30.0205L169.833 27.9203C170.88 27.6615 172.157 27.4333 173.665 27.2354C175.188 27.0223 176.758 26.8549 178.377 26.7332C180.011 26.6114 181.51 26.5505 182.874 26.5505C187.729 26.5505 191.489 27.7833 194.155 30.2488C196.836 32.7144 198.177 36.1539 198.177 40.5676C198.177 43.4136 197.74 45.8259 196.868 47.8044C195.995 49.7677 194.853 51.3581 193.441 52.5756C192.029 53.778 190.482 54.6531 188.8 55.201C187.134 55.7337 185.484 56 183.85 56H181.922C180.066 56 178.337 56 176.734 56C175.148 56 173.26 56 171.071 56H170.142ZM182.97 53.5573C183.89 53.5573 184.858 53.329 185.873 52.8724C186.904 52.4158 187.864 51.7005 188.752 50.7265C189.657 49.7524 190.387 48.5045 190.942 46.9825C191.513 45.4454 191.799 43.6038 191.799 41.4579C191.799 37.4095 190.886 34.32 189.062 32.1893C187.253 30.0434 184.62 28.9704 181.161 28.9704C180.875 28.9704 180.582 28.978 180.28 28.9932C179.979 29.0085 179.67 29.0237 179.352 29.0389V52.1419C179.352 52.7507 179.717 53.1388 180.447 53.3062C181.177 53.4736 182.018 53.5573 182.97 53.5573Z" fill="white"/>
</svg>
